<svg width="56" height="59" viewBox="0 0 56 59" fill="none" xmlns="http://www.w3.org/2000/svg">
<path d="M26.7634 54.7004C26.7271 55.0109 26.6139 55.2749 26.424 55.4924C26.2336 55.7145 25.9891 55.8762 25.6906 55.9777C25.3869 56.0832 25.052 56.1146 24.6858 56.0719C24.315 56.0286 24.0028 55.9264 23.7491 55.7652C23.4955 55.6041 23.3106 55.3969 23.1946 55.1438C23.074 54.8901 23.0327 54.601 23.0706 54.2766L24.1901 54.4072C24.1689 54.588 24.2149 54.7366 24.3281 54.8532C24.4408 54.9744 24.6037 55.0474 24.817 55.0723C25.0441 55.0988 25.2329 55.0715 25.3833 54.9904C25.5291 54.9088 25.6121 54.7822 25.6322 54.6107C25.6506 54.4531 25.623 54.3277 25.5494 54.2346C25.4757 54.1414 25.3506 54.0657 25.1742 54.0075L24.4212 53.7576C23.9731 53.6114 23.6514 53.4094 23.4561 53.1517C23.2602 52.8986 23.1861 52.5681 23.2339 52.1602C23.2724 51.8312 23.3875 51.5509 23.579 51.3196C23.77 51.0928 24.0217 50.9296 24.3341 50.8298C24.6418 50.7294 24.9927 50.7022 25.3867 50.7482C25.7668 50.7926 26.0929 50.8964 26.3651 51.0597C26.6327 51.2225 26.8314 51.4312 26.9613 51.686C27.0861 51.9449 27.1297 52.2342 27.0923 52.554L25.9729 52.4234C25.9946 52.238 25.9442 52.0865 25.8217 51.9688C25.6992 51.8512 25.5128 51.7778 25.2625 51.7486C25.0076 51.7188 24.8005 51.7416 24.6413 51.817C24.4816 51.8971 24.3923 52.0182 24.3733 52.1804C24.3564 52.3241 24.3805 52.4397 24.4454 52.5271C24.5057 52.614 24.6197 52.6837 24.7874 52.7362L25.5544 52.9877C26.0024 53.134 26.3294 53.3507 26.5354 53.6378C26.7368 53.9244 26.8128 54.2786 26.7634 54.7004Z" fill="#121212"/>
<path d="M20.3241 49.5297C20.811 49.7065 21.1953 49.9604 21.477 50.2911C21.7572 50.6263 21.9258 51.0152 21.9829 51.458C22.0384 51.9052 21.9727 52.3852 21.7856 52.8982C21.6002 53.4068 21.3378 53.813 20.9986 54.1167C20.6594 54.4205 20.2701 54.6092 19.831 54.683C19.3902 54.7612 18.9286 54.7126 18.4461 54.5373C18.0382 54.3891 17.7035 54.1831 17.442 53.9193C17.1746 53.6583 16.9888 53.3574 16.8845 53.0167C16.7803 52.6759 16.7704 52.3149 16.8548 51.9334L17.9798 52.3422C17.9605 52.6132 18.0277 52.8511 18.1815 53.056C18.3309 53.2592 18.5526 53.4142 18.8465 53.521C19.1096 53.6166 19.3593 53.6403 19.5954 53.592C19.8272 53.5422 20.0343 53.4238 20.2167 53.2368C20.3975 53.0542 20.5447 52.8073 20.6582 52.496C20.7685 52.1935 20.814 51.9121 20.7946 51.6519C20.7709 51.39 20.6871 51.1635 20.5432 50.9722C20.3934 50.7837 20.1891 50.6424 19.9303 50.5484C19.6321 50.44 19.3551 50.4164 19.0994 50.4774C18.8377 50.5412 18.63 50.6817 18.4763 50.899L17.371 50.4974C17.5591 50.1586 17.8079 49.8915 18.1176 49.6962C18.4229 49.4992 18.765 49.3852 19.1439 49.3541C19.5228 49.3229 19.9162 49.3815 20.3241 49.5297Z" fill="#121212"/>
<path d="M16.4047 47.7175L17.3527 48.3399L14.5027 52.6654L12.8291 51.5667C12.3025 51.2209 11.9777 50.8318 11.8546 50.3993C11.7252 49.9682 11.8081 49.5285 12.1033 49.0804C12.2882 48.7998 12.5066 48.5999 12.7584 48.4805C13.0064 48.3586 13.2924 48.3147 13.6164 48.3488L13.988 46.1309L15.0238 46.8109L14.6758 48.7512L15.4072 49.2315L16.4047 47.7175ZM14.1093 51.2013L14.8603 50.0615L14.1406 49.589C13.9338 49.4532 13.7405 49.3989 13.5606 49.4259C13.3768 49.4504 13.2246 49.5542 13.1039 49.7374C12.9833 49.9205 12.9487 50.096 13.0002 50.2638C13.0452 50.4329 13.1731 50.5866 13.3837 50.7249L14.1093 51.2013Z" fill="#121212"/>
<path d="M8.33336 44.0328C8.71725 43.6713 9.13071 43.4293 9.57372 43.307C10.0133 43.1879 10.4478 43.189 10.8771 43.3103C11.303 43.4348 11.6891 43.6802 12.0353 44.0465C12.3783 44.4094 12.5997 44.8067 12.6994 45.2384C12.7926 45.6699 12.7668 46.1012 12.6221 46.5324C12.4742 46.9601 12.2083 47.3548 11.8244 47.7163C11.4405 48.0779 11.0288 48.3182 10.5892 48.4373C10.1461 48.5597 9.71328 48.5603 9.29057 48.4391C8.86126 48.3178 8.4751 48.0757 8.13212 47.7128C7.78593 47.3465 7.56624 46.9476 7.47306 46.5161C7.37328 46.0844 7.39575 45.653 7.54046 45.2219C7.68517 44.7907 7.94947 44.3943 8.33336 44.0328ZM9.15557 44.9027C8.91436 45.1299 8.74569 45.3625 8.64956 45.6005C8.55002 45.8416 8.52331 46.0783 8.56942 46.3106C8.61232 46.5394 8.72994 46.7555 8.92227 46.959C9.1146 47.1625 9.32554 47.294 9.55511 47.3535C9.78467 47.4129 10.0229 47.4001 10.2699 47.3149C10.5135 47.2329 10.7559 47.0784 10.9971 46.8512C11.2383 46.624 11.4087 46.3899 11.5082 46.1487C11.6078 45.9075 11.6345 45.6708 11.5884 45.4386C11.5423 45.2064 11.423 44.9885 11.2307 44.785C11.0384 44.5815 10.829 44.4518 10.6027 44.3957C10.3697 44.3394 10.1297 44.3539 9.88276 44.4391C9.63578 44.5242 9.39338 44.6788 9.15557 44.9027Z" fill="#121212"/>
<path d="M4.55684 42.822L9.04485 40.2354L9.61261 41.2171L5.1246 43.8036L4.55684 42.822ZM9.51098 41.0414L8.60124 41.5657L7.11175 38.9904L8.02148 38.4661L9.51098 41.0414Z" fill="#121212"/>
<path d="M1.99454 37.0527L6.95766 35.5695L7.28343 36.6557L2.32031 38.1389L1.99454 37.0527ZM7.22511 36.4613L6.21907 36.7619L5.36443 33.9123L6.37047 33.6117L7.22511 36.4613Z" fill="#121212"/>
<path d="M6.29225 25.1503L5.93913 27.1494L0.837553 26.2514L1.17849 24.3213C1.26698 23.8204 1.45251 23.4006 1.73508 23.0617C2.01847 22.7183 2.37228 22.4726 2.79649 22.3246C3.22071 22.1765 3.6856 22.147 4.19116 22.236C4.68753 22.3234 5.10778 22.5063 5.45191 22.7849C5.79685 23.0588 6.04445 23.4009 6.19471 23.8112C6.34578 24.2168 6.3783 24.6632 6.29225 25.1503ZM1.54497 25.2245L5.64002 25.9453L5.00853 26.3814L5.23866 25.0786C5.29062 24.7845 5.27511 24.5235 5.19214 24.2957C5.10999 24.0633 4.96605 23.8721 4.76032 23.7222C4.5546 23.5722 4.29548 23.4698 3.98295 23.4147C3.66123 23.3581 3.37721 23.3697 3.1309 23.4496C2.8808 23.524 2.67653 23.661 2.51806 23.8606C2.35582 24.0547 2.2475 24.3057 2.19311 24.6136L1.97516 25.8475L1.54497 25.2245Z" fill="#121212"/>
<path d="M6.37842 16.9246C6.86277 17.1331 7.24881 17.4162 7.53656 17.7738C7.82002 18.1296 7.99086 18.5284 8.04909 18.9701C8.10303 19.4099 8.03004 19.8612 7.83012 20.3238C7.63205 20.7822 7.35424 21.1427 6.99671 21.4054C6.63674 21.662 6.22987 21.8094 5.77611 21.8477C5.32419 21.8818 4.85606 21.7945 4.37172 21.586C3.88738 21.3774 3.50348 21.0953 3.22002 20.7395C2.93227 20.3819 2.7605 19.9853 2.70471 19.5497C2.64648 19.108 2.7164 18.658 2.91447 18.1996C3.1144 17.7369 3.39434 17.3773 3.75431 17.1208C4.11184 16.8581 4.51749 16.7076 4.97126 16.6693C5.42503 16.6309 5.89408 16.716 6.37842 16.9246ZM5.9036 18.0234C5.59928 17.8923 5.31868 17.8299 5.06179 17.8362C4.80062 17.8406 4.57237 17.91 4.37704 18.0444C4.18356 18.1744 4.03129 18.368 3.92022 18.625C3.80915 18.8821 3.77168 19.1276 3.80781 19.3616C3.84394 19.5957 3.95001 19.809 4.12603 20.0017C4.29777 20.1925 4.53579 20.3534 4.84011 20.4844C5.14443 20.6155 5.42718 20.6788 5.68835 20.6744C5.94953 20.67 6.17778 20.6006 6.3731 20.4662C6.56843 20.3318 6.72163 20.1361 6.8327 19.8791C6.94377 19.6221 6.98031 19.3787 6.94234 19.1489C6.90192 18.9131 6.7937 18.6988 6.61768 18.5061C6.44166 18.3135 6.20364 18.1526 5.9036 18.0234Z" fill="#121212"/>
<path d="M9.07242 17.5276L3.98573 15.6835L4.69298 14.7352L6.90243 15.5312C7.05394 15.5856 7.21154 15.6475 7.37524 15.7169C7.53519 15.7834 7.73072 15.8764 7.96184 15.9958C7.78094 15.809 7.63563 15.6487 7.52589 15.5149C7.41616 15.381 7.31157 15.248 7.21212 15.116L5.78943 13.2651L6.54689 12.2494L8.7145 13.1015C8.86696 13.1625 9.02504 13.2276 9.18874 13.297C9.35243 13.3663 9.54749 13.456 9.77391 13.5661C9.59484 13.3691 9.45232 13.205 9.34633 13.0739C9.2366 12.9401 9.13575 12.8099 9.04379 12.6834L7.64334 10.7793L8.33385 9.8534L11.5457 14.2113L10.8845 15.0979L7.58896 13.8262L9.73782 16.6354L9.07242 17.5276Z" fill="#121212"/>
<path d="M13.0867 12.7677L12.2281 13.4869L8.89495 9.52167L9.75355 8.8025L14.1554 10.101L13.8871 10.3258L11.4278 7.40013L12.2864 6.68096L15.6196 10.6461L14.761 11.3653L10.3636 10.0721L10.6319 9.84738L13.0867 12.7677Z" fill="#121212"/>
<path d="M22.3414 6.14661C22.1688 6.18744 22.0072 6.16333 21.8566 6.07429C21.7049 5.9807 21.6091 5.84991 21.5692 5.68192C21.5282 5.50938 21.555 5.34958 21.6496 5.20252C21.7431 5.05092 21.8761 4.95471 22.0487 4.91388C22.2167 4.87413 22.3766 4.90104 22.5283 4.99463C22.6835 5.08259 22.7816 5.21285 22.8226 5.38538C22.8625 5.55338 22.8334 5.71372 22.7353 5.86639C22.6407 6.01345 22.5094 6.10686 22.3414 6.14661Z" fill="#121212"/>
<path d="M32.2175 3.6114C32.2898 3.30719 32.4328 3.0581 32.6468 2.86414C32.8618 2.66564 33.1234 2.53333 33.4317 2.46719C33.7456 2.39759 34.0819 2.40523 34.4407 2.49011C34.804 2.57606 35.1022 2.71376 35.3355 2.9032C35.5687 3.09265 35.7282 3.31981 35.814 3.58468C35.9043 3.85062 35.9118 4.14251 35.8363 4.46034L34.7396 4.20087C34.7816 4.0238 34.7532 3.87081 34.6543 3.74191C34.5565 3.60847 34.4031 3.51704 34.1942 3.46762C33.9717 3.41497 33.781 3.42021 33.6221 3.48333C33.4678 3.54752 33.3707 3.66361 33.3308 3.83161C33.2941 3.98599 33.307 4.11371 33.3693 4.21477C33.4316 4.31584 33.547 4.40549 33.7155 4.48371L34.4345 4.81924C34.8625 5.01642 35.1586 5.2543 35.3226 5.53289C35.4878 5.80694 35.5229 6.14375 35.4281 6.54331C35.3515 6.86568 35.2047 7.13066 34.9875 7.33824C34.7714 7.54128 34.5024 7.67425 34.1805 7.73716C33.8632 7.80115 33.5115 7.78748 33.1255 7.69616C32.7531 7.60806 32.4412 7.46714 32.1898 7.27339C31.943 7.08072 31.7699 6.85034 31.6704 6.58225C31.5766 6.31069 31.5669 6.01827 31.6413 5.70498L32.738 5.96444C32.6949 6.14606 32.7273 6.30239 32.8353 6.43344C32.9433 6.56449 33.1199 6.65902 33.3651 6.71704C33.6149 6.77613 33.8232 6.77746 33.9901 6.72103C34.1581 6.66006 34.2609 6.55012 34.2987 6.3912C34.3321 6.25045 34.3216 6.13288 34.2673 6.03851C34.2175 5.9452 34.1124 5.86278 33.9519 5.79125L33.2193 5.45249C32.7913 5.25532 32.4917 5.0022 32.3204 4.69314C32.1537 4.38516 32.1194 4.02458 32.2175 3.6114Z" fill="#121212"/>
<path d="M38.0125 9.49276C37.5494 9.26061 37.1972 8.96395 36.9558 8.60279C36.7164 8.23745 36.5941 7.8316 36.5888 7.38523C36.5857 6.93469 36.7068 6.46555 36.9521 5.9778C37.1954 5.49422 37.5032 5.12127 37.8755 4.85896C38.2478 4.59665 38.6563 4.45433 39.1012 4.43198C39.5481 4.40547 40.001 4.50724 40.4599 4.73729C40.8479 4.93179 41.1564 5.1752 41.3855 5.46752C41.6208 5.75777 41.7704 6.07814 41.8344 6.42864C41.8984 6.77914 41.8662 7.1389 41.7381 7.50791L40.668 6.97146C40.7187 6.70455 40.6796 6.46046 40.5506 6.23919C40.4258 6.02001 40.2236 5.84036 39.9441 5.70024C39.6938 5.57475 39.4485 5.52228 39.2084 5.54281C38.9723 5.56544 38.7529 5.65901 38.55 5.82351C38.3491 5.98385 38.1743 6.21201 38.0254 6.50799C37.8806 6.79564 37.8028 7.06982 37.7918 7.33053C37.7849 7.59333 37.8418 7.82806 37.9625 8.03472C38.0894 8.23929 38.2759 8.40328 38.5221 8.52667C38.8058 8.66889 39.0781 8.72453 39.3392 8.69359C39.6066 8.66058 39.8292 8.54512 40.0072 8.34721L41.0585 8.87424C40.8323 9.18889 40.554 9.42526 40.2237 9.58333C39.8976 9.7435 39.5445 9.81707 39.1645 9.80405C38.7845 9.79102 38.4005 9.68726 38.0125 9.49276Z" fill="#121212"/>
<path d="M41.6945 11.7473L40.8252 11.0192L44.1583 7.05401L45.693 8.33952C46.176 8.74405 46.4535 9.16822 46.5255 9.61202C46.604 10.0552 46.4706 10.4823 46.1253 10.8931C45.9091 11.1503 45.669 11.3235 45.4049 11.4128C45.1445 11.5051 44.8553 11.5155 44.5374 11.444L43.9108 13.6037L42.9609 12.8081L43.5319 10.9214L42.8611 10.3595L41.6945 11.7473ZM44.379 8.55377L43.5007 9.59865L44.1607 10.1515C44.3504 10.3103 44.5361 10.3867 44.7179 10.3808C44.9033 10.3778 45.0666 10.2923 45.2077 10.1245C45.3488 9.95655 45.4035 9.78629 45.3719 9.61366C45.3468 9.44045 45.2376 9.27294 45.0444 9.11113L44.379 8.55377Z" fill="#121212"/>
<path d="M49.2836 16.343C48.8604 16.6576 48.4216 16.8499 47.9674 16.92C47.517 16.9873 47.0856 16.9358 46.6733 16.7654C46.2647 16.5923 45.9098 16.3037 45.6084 15.8997C45.3099 15.4994 45.1362 15.0791 45.0872 14.6387C45.0447 14.1993 45.1204 13.7739 45.3142 13.3624C45.5108 12.9547 45.8207 12.5936 46.2439 12.279C46.6672 11.9645 47.104 11.7736 47.5545 11.7063C48.0087 11.6362 48.4387 11.6858 48.8445 11.8552C49.2568 12.0256 49.6122 12.3109 49.9107 12.7112C50.212 13.1152 50.3839 13.5369 50.4264 13.9763C50.4754 14.4167 50.403 14.8426 50.2092 15.254C50.0154 15.6655 49.7069 16.0285 49.2836 16.343ZM48.568 15.3835C48.8339 15.1859 49.0285 14.9745 49.1516 14.7492C49.2784 14.5212 49.3324 14.2892 49.3136 14.0532C49.2976 13.821 49.2058 13.5926 49.0384 13.3681C48.871 13.1437 48.6768 12.9886 48.4557 12.9029C48.2346 12.8172 47.9965 12.8023 47.7413 12.8582C47.4898 12.9114 47.2311 13.0368 46.9652 13.2344C46.6992 13.432 46.5028 13.6448 46.376 13.8728C46.2491 14.1008 46.1951 14.3329 46.2139 14.5689C46.2328 14.8049 46.3259 15.0351 46.4933 15.2596C46.6607 15.484 46.8535 15.6372 47.0718 15.7192C47.2967 15.8021 47.5367 15.8156 47.7919 15.7597C48.0471 15.7038 48.3058 15.5784 48.568 15.3835Z" fill="#121212"/>
<path d="M52.8928 17.9832L48.1351 20.0318L47.6853 18.9908L52.4429 16.9422L52.8928 17.9832ZM47.7658 19.1772L48.7302 18.7619L49.9103 21.4929L48.9459 21.9081L47.7658 19.1772Z" fill="#121212"/>
<path d="M54.7661 24.0104L49.6645 24.9083L49.4673 23.7916L54.5689 22.8937L54.7661 24.0104ZM49.5026 23.9915L50.5367 23.8095L51.0542 26.7392L50.0201 26.9212L49.5026 23.9915Z" fill="#121212"/>
<path d="M49.1132 35.3343L49.6964 33.3898L54.6595 34.873L54.0965 36.7504C53.9503 37.2376 53.7172 37.6331 53.3971 37.9368C53.0757 38.2451 52.6957 38.4481 52.2571 38.5459C51.8185 38.6438 51.3533 38.6192 50.8615 38.4722C50.3786 38.3279 49.9824 38.0975 49.673 37.781C49.3622 37.4689 49.156 37.1004 49.0544 36.6756C48.9515 36.2552 48.9711 35.8081 49.1132 35.3343ZM53.8374 35.8109L49.8535 34.6203L50.5315 34.2604L50.1514 35.5276C50.0656 35.8137 50.0507 36.0747 50.1066 36.3106C50.1612 36.5509 50.282 36.7575 50.4689 36.9302C50.6558 37.103 50.9013 37.2348 51.2053 37.3257C51.5183 37.4192 51.8018 37.4406 52.0557 37.3899C52.3128 37.3449 52.5317 37.2325 52.7123 37.0527C52.896 36.8787 53.0328 36.642 53.1226 36.3425L53.4826 35.1423L53.8374 35.8109Z" fill="#121212"/>
<path d="M48.0711 43.4941C47.6142 43.2308 47.2636 42.9049 47.0193 42.5163C46.7791 42.1301 46.6557 41.7143 46.6492 41.2689C46.6467 40.8258 46.7716 40.3861 47.024 39.9498C47.274 39.5175 47.5918 39.1917 47.9775 38.9723C48.3648 38.7593 48.7861 38.6601 49.2413 38.6746C49.6942 38.6932 50.149 38.8342 50.6059 39.0975C51.0628 39.3608 51.4114 39.6856 51.6516 40.0718C51.8959 40.4604 52.0205 40.8742 52.0253 41.3132C52.0318 41.7587 51.9101 42.1975 51.6601 42.6298C51.4077 43.066 51.0879 43.3907 50.7005 43.6037C50.3148 43.8231 49.8944 43.9255 49.4392 43.911C48.984 43.8964 48.528 43.7574 48.0711 43.4941ZM48.6704 42.458C48.9575 42.6234 49.229 42.7179 49.4849 42.7415C49.7448 42.7675 49.9796 42.725 50.1892 42.6142C50.3965 42.5075 50.5703 42.3329 50.7105 42.0905C50.8506 41.8482 50.9164 41.6087 50.9077 41.3721C50.899 41.1354 50.8184 40.9112 50.6659 40.6995C50.5175 40.4901 50.2998 40.3026 50.0127 40.1372C49.7256 39.9717 49.4521 39.8761 49.1922 39.8501C48.9322 39.8242 48.6974 39.8666 48.4878 39.9774C48.2782 40.0882 48.1033 40.2648 47.9631 40.5072C47.8229 40.7496 47.7583 40.987 47.7693 41.2196C47.7821 41.4586 47.8647 41.6839 48.0172 41.8957C48.1696 42.1074 48.3874 42.2949 48.6704 42.458Z" fill="#121212"/>
<path d="M45.4645 42.5828L50.3029 45.0048L49.4903 45.8646L47.3882 44.8175C47.244 44.7459 47.0946 44.6661 46.9401 44.5782C46.7889 44.4936 46.6055 44.3785 46.3898 44.2331C46.5478 44.4396 46.6735 44.6157 46.767 44.7614C46.8605 44.9071 46.9489 45.0513 47.0324 45.194L48.2306 47.1975L47.3603 48.1183L45.3062 47.0203C45.1618 46.9421 45.0124 46.859 44.8578 46.7712C44.7033 46.6833 44.52 46.5716 44.3079 46.4359C44.4628 46.6524 44.5854 46.8319 44.6754 46.9744C44.7689 47.1201 44.8539 47.2611 44.9306 47.3974L46.1005 49.4512L45.3072 50.2906L42.6229 45.5894L43.3826 44.7857L46.5083 46.4312L44.7 43.3917L45.4645 42.5828Z" fill="#121212"/>
<path d="M40.924 46.8452L41.8602 46.2305L44.7102 50.556L43.774 51.1707L39.5529 49.3699L39.8454 49.1778L41.9483 52.3693L41.012 52.984L38.162 48.6585L39.0983 48.0438L43.3155 49.8388L43.023 50.0309L40.924 46.8452Z" fill="#121212"/>
<path d="M33.1333 52.6673C33.3094 52.6468 33.4671 52.6894 33.6064 52.7954C33.7462 52.9059 33.8262 53.0469 33.8462 53.2184C33.8669 53.3945 33.8217 53.5502 33.7106 53.6853C33.6001 53.825 33.4568 53.9052 33.2807 53.9257C33.1092 53.9457 32.9535 53.9005 32.8137 53.7899C32.6698 53.6846 32.5875 53.5438 32.5669 53.3677C32.5468 53.1962 32.5944 53.0403 32.7095 52.9C32.8205 52.7649 32.9618 52.6873 33.1333 52.6673Z" fill="#121212"/>
</svg>
