<svg width="24" height="24" viewBox="0 0 24 24" fill="none" xmlns="http://www.w3.org/2000/svg">
<g clip-path="url(#clip0_81_644)">
<path fill-rule="evenodd" clip-rule="evenodd" d="M12.0099 0C5.36875 0 0 5.61456 0 12.5605C0 18.1128 3.43994 22.8127 8.21205 24.4762C8.80869 24.6012 9.02724 24.2059 9.02724 23.8734C9.02724 23.5822 9.00757 22.5841 9.00757 21.5441C5.6667 22.2929 4.97099 20.0468 4.97099 20.0468C4.43409 18.5911 3.63858 18.2169 3.63858 18.2169C2.54511 17.4475 3.71823 17.4475 3.71823 17.4475C4.93117 17.5307 5.56763 18.7368 5.56763 18.7368C6.64118 20.6498 8.37111 20.1093 9.06706 19.7765C9.16638 18.9655 9.48473 18.404 9.82275 18.0922C7.15817 17.801 4.35469 16.7197 4.35469 11.895C4.35469 10.5225 4.8316 9.39954 5.58729 8.52622C5.46807 8.21436 5.0504 6.92479 5.70677 5.19883C5.70677 5.19883 6.72083 4.86604 9.00732 6.48813C9.98625 6.21319 10.9958 6.07332 12.0099 6.07215C13.024 6.07215 14.0577 6.21787 15.0123 6.48813C17.299 4.86604 18.3131 5.19883 18.3131 5.19883C18.9695 6.92479 18.5515 8.21436 18.4323 8.52622C19.2079 9.39954 19.6652 10.5225 19.6652 11.895C19.6652 16.7197 16.8617 17.78 14.1772 18.0922C14.6148 18.4872 14.9924 19.2357 14.9924 20.4212C14.9924 22.1055 14.9727 23.4574 14.9727 23.8731C14.9727 24.2059 15.1915 24.6012 15.7879 24.4764C20.56 22.8125 23.9999 18.1128 23.9999 12.5605C24.0196 5.61456 18.6312 0 12.0099 0Z" fill="#121212"/>
</g>
<defs>
<clipPath id="clip0_81_644">
<rect width="24" height="24" fill="white"/>
</clipPath>
</defs>
</svg>
