<svg width="65" height="64" viewBox="0 0 65 64" fill="none" xmlns="http://www.w3.org/2000/svg">
<g clip-path="url(#clip0_221_1047)">
<path fill-rule="evenodd" clip-rule="evenodd" d="M32.5265 0C14.8167 0 0.5 14.9722 0.5 33.4948C0.5 48.3009 9.67318 60.8339 22.3988 65.2698C23.9898 65.6032 24.5726 64.5491 24.5726 63.6623C24.5726 62.8858 24.5202 60.2242 24.5202 57.4509C15.6112 59.4476 13.756 53.4581 13.756 53.4581C12.3242 49.5762 10.2029 48.5785 10.2029 48.5785C7.28696 46.5267 10.4153 46.5267 10.4153 46.5267C13.6498 46.7485 15.347 49.9648 15.347 49.9648C18.2098 55.0662 22.823 53.6248 24.6788 52.7374C24.9437 50.5746 25.7926 49.0774 26.694 48.2457C19.5884 47.4692 12.1125 44.5857 12.1125 31.7199C12.1125 28.0599 13.3843 25.0654 15.3995 22.7366C15.0815 21.905 13.9677 18.4661 15.7181 13.8635C15.7181 13.8635 18.4222 12.9761 24.5195 17.3017C27.13 16.5685 29.8222 16.1955 32.5265 16.1924C35.2306 16.1924 37.9873 16.581 40.5328 17.3017C46.6307 12.9761 49.3349 13.8635 49.3349 13.8635C51.0852 18.4661 49.9708 21.905 49.6528 22.7366C51.7211 25.0654 52.9405 28.0599 52.9405 31.7199C52.9405 44.5857 45.4645 47.4134 38.3058 48.2457C39.4727 49.2992 40.4797 51.2953 40.4797 54.4565C40.4797 58.9481 40.4272 62.553 40.4272 63.6616C40.4272 64.5491 41.0107 65.6032 42.601 65.2705C55.3267 60.8333 64.4999 48.3009 64.4999 33.4948C64.5523 14.9722 50.1832 0 32.5265 0Z" fill="white" fill-opacity="0.87"/>
</g>
<defs>
<clipPath id="clip0_221_1047">
<rect width="64" height="64" fill="white" transform="translate(0.5)"/>
</clipPath>
</defs>
</svg>
