<svg width="65" height="64" viewBox="0 0 65 64" fill="none" xmlns="http://www.w3.org/2000/svg">
<path d="M0.5 0V64H64.5V0H0.5ZM21.8333 50.6667H13.8333V21.3333H21.8333V50.6667ZM17.8333 17.952C15.2573 17.952 13.1667 15.8453 13.1667 13.248C13.1667 10.6507 15.2573 8.544 17.8333 8.544C20.4093 8.544 22.5 10.6507 22.5 13.248C22.5 15.8453 20.412 17.952 17.8333 17.952ZM53.8333 50.6667H45.8333V35.7227C45.8333 26.7413 35.1667 27.4213 35.1667 35.7227V50.6667H27.1667V21.3333H35.1667V26.04C38.892 19.144 53.8333 18.6347 53.8333 32.6427V50.6667Z" fill="white"/>
</svg>
