<svg width="24" height="24" viewBox="0 0 24 24" fill="none" xmlns="http://www.w3.org/2000/svg">
<g id="Loader anim">
<path id="Subtract" fill-rule="evenodd" clip-rule="evenodd" d="M12 24C18.6274 24 24 18.6274 24 12C24 5.37258 18.6274 0 12 0C5.37258 0 0 5.37258 0 12C0 18.6274 5.37258 24 12 24ZM12 22C17.5228 22 22 17.5228 22 12C22 6.47715 17.5228 2 12 2C6.47715 2 2 6.47715 2 12C2 17.5228 6.47715 22 12 22Z" fill="url(#paint0_angular_589_1334)"/>
<path id="Ellipse 8 (Stroke)" fill-rule="evenodd" clip-rule="evenodd" d="M22.7818 9.60062C23.3296 9.52995 23.8309 9.91669 23.9016 10.4644C23.9673 10.9736 24.0002 11.4865 24.0002 11.9999C24.0002 12.5522 23.5525 12.9999 23.0002 12.9999C22.4479 12.9999 22.0002 12.5522 22.0002 11.9999C22.0002 11.5721 21.9727 11.1447 21.918 10.7204C21.8473 10.1726 22.2341 9.67128 22.7818 9.60062Z" fill="#6880FF"/>
</g>
<defs>
<radialGradient id="paint0_angular_589_1334" cx="0" cy="0" r="1" gradientUnits="userSpaceOnUse" gradientTransform="translate(12 12) scale(12)">
<stop stop-color="#27AE60" stop-opacity="0"/>
<stop offset="0.0001" stop-color="#8DA0FF" stop-opacity="0"/>
<stop offset="1" stop-color="#5772FF"/>
</radialGradient>
</defs>
</svg>
