<svg width="16" height="16" viewBox="0 0 16 16" fill="none" xmlns="http://www.w3.org/2000/svg">
<path d="M6.23366 1.98499C4.83601 8.02001 9.44909 11.918 12.8017 13.0305C11.6099 13.903 10.1265 14.3992 8.57449 14.3992C4.79314 14.3992 1.7149 11.5258 1.7149 7.996C1.7149 5.23462 3.60129 2.87344 6.23366 1.98499ZM8.56592 0C3.77278 0 0 3.62581 0 7.996C0 12.4142 3.84137 16 8.57449 16C11.7556 16 14.5166 14.3832 16 11.982C9.56056 11.7819 5.63344 5.23462 8.86602 0C8.76313 0 8.66881 0 8.56592 0Z" fill="black"/>
</svg>
