<svg width="16" height="16" viewBox="0 0 16 16" fill="none" xmlns="http://www.w3.org/2000/svg">
<path d="M4.18909 3.13425L2.88 1.82648L1.85455 2.85662L3.15636 4.16438L4.18909 3.13425ZM0 7.26941H2.18182V8.73059H0V7.26941ZM7.27273 0H8.72727V2.15525H7.27273V0ZM13.12 1.82283L14.144 2.85078L12.8422 4.15854L11.8189 3.12986L13.12 1.82283ZM11.8109 12.8658L13.1127 14.1808L14.1382 13.1507L12.8291 11.8429L11.8109 12.8658ZM13.8182 7.26941H16V8.73059H13.8182V7.26941ZM8 3.61644C5.59273 3.61644 3.63636 5.58173 3.63636 8C3.63636 10.4183 5.59273 12.3836 8 12.3836C10.4073 12.3836 12.3636 10.4183 12.3636 8C12.3636 5.58173 10.4073 3.61644 8 3.61644ZM8 10.9224C6.39273 10.9224 5.09091 9.61461 5.09091 8C5.09091 6.38539 6.39273 5.07763 8 5.07763C9.60727 5.07763 10.9091 6.38539 10.9091 8C10.9091 9.61461 9.60727 10.9224 8 10.9224ZM7.27273 13.8447H8.72727V16H7.27273V13.8447ZM1.85455 13.1434L2.88 14.1735L4.18182 12.8584L3.15636 11.8283L1.85455 13.1434Z" fill="black"/>
</svg>
